<svg width="158" height="79" viewBox="0 0 158 79" fill="none" xmlns="http://www.w3.org/2000/svg">
<path d="M64.5063 15.0347C62.9254 13.3682 61.0483 12.0462 58.9822 11.1442C56.9162 10.2423 54.7018 9.77802 52.4654 9.77802C50.2291 9.77802 48.0146 10.2423 45.9486 11.1442C43.8826 12.0462 42.0055 13.3682 40.4245 15.0347L37.1434 18.4917L33.8623 15.0347C30.6689 11.67 26.3376 9.77976 21.8214 9.77976C17.3052 9.77976 12.9739 11.67 9.78048 15.0347C6.58703 18.3994 4.79297 22.9629 4.79297 27.7212C4.79297 32.4796 6.58703 37.0431 9.78048 40.4078L13.0616 43.8648L37.1434 69.2378L61.2253 43.8648L64.5063 40.4078C66.0881 38.742 67.3428 36.7643 68.1988 34.5875C69.0549 32.4107 69.4955 30.0775 69.4955 27.7212C69.4955 25.365 69.0549 23.0318 68.1988 20.855C67.3428 18.6782 66.0881 16.7004 64.5063 15.0347V15.0347Z" fill="#11448A"/>
<path d="M62.4413 42.5715L43.8296 42.3486C43.486 42.3486 43.1748 42.6348 43.0373 43.0777L41.7722 47.1505L40.784 41.6669L39.5785 34.9195L37.7947 24.8419C37.6996 24.3035 37.3572 23.9244 36.963 23.9195C36.5667 23.9141 36.2217 24.2859 36.1202 24.8218C35.8885 26.0449 35.6391 27.3579 35.3871 28.6691L33.9978 35.9251L32.5982 43.1768L31.4735 48.9556L30.4582 42.6056L29.6482 37.4811C29.5617 36.9355 29.2224 36.543 28.8252 36.5296C28.4271 36.5175 28.0753 36.8845 27.9702 37.4234L27.6867 38.8792L26.9657 42.3492H11.6016L13.94 44.7796H27.6141C27.9983 44.7796 28.3363 44.4236 28.444 43.9053L28.699 42.6785L28.7712 43.1354L30.5481 54.2496C30.635 54.794 30.9747 55.1853 31.3715 55.1981C31.378 55.1987 31.3849 55.1987 31.3913 55.1987C31.7799 55.1987 32.1219 54.8335 32.2252 54.3037L34.2663 43.8153L35.6672 36.5588L36.9241 29.9937L37.9014 35.5076L39.1074 42.2599L40.6985 51.0919C40.7879 51.5896 41.0901 51.9541 41.4536 52.0033C41.8171 52.0532 42.1629 51.7755 42.3185 51.3113L42.966 49.3773C42.9694 49.367 42.9729 49.3566 42.9759 49.3463L44.395 44.779H60.381L62.4413 42.5715Z" fill="white"/>
<path d="M75.5882 44.1359V33.954H77.4327V38.2644H82.1507V33.954H84.0002V44.1359H82.1507V39.8106H77.4327V44.1359H75.5882ZM85.0062 44.1359V33.954H91.6284V35.5002H86.8507V38.2644H91.2853V39.8106H86.8507V42.5897H91.6681V44.1359H85.0062ZM93.8176 44.1359H91.8489L95.4334 33.954H97.7104L101.3 44.1359H99.3311L96.6117 36.0421H96.5321L93.8176 44.1359ZM93.8823 40.1437H99.2516V41.6252H93.8823V40.1437ZM101.641 44.1359V33.954H103.485V42.5897H107.97V44.1359H101.641ZM106.824 35.5002V33.954H114.948V35.5002H111.801V44.1359H109.971V35.5002H106.824ZM115.514 44.1359V33.954H117.358V38.2644H122.077V33.954H123.926V44.1359H122.077V39.8106H117.358V44.1359H115.514ZM124.932 44.1359V33.954H131.554V35.5002H126.776V38.2644H131.211V39.8106H126.776V42.5897H131.594V44.1359H124.932ZM133.743 44.1359H131.775L135.359 33.954H137.636L141.226 44.1359H139.257L136.537 36.0421H136.458L133.743 44.1359ZM133.808 40.1437H139.177V41.6252H133.808V40.1437ZM146.936 36.7531C146.89 36.3189 146.694 35.9808 146.349 35.7388C146.008 35.4969 145.564 35.3759 145.017 35.3759C144.633 35.3759 144.303 35.4339 144.028 35.5499C143.753 35.6659 143.542 35.8234 143.396 36.0222C143.25 36.2211 143.176 36.4481 143.173 36.7033C143.173 36.9155 143.221 37.0994 143.317 37.2552C143.416 37.411 143.55 37.5435 143.719 37.6529C143.888 37.759 144.076 37.8485 144.281 37.9214C144.487 37.9943 144.694 38.0556 144.903 38.1053L145.857 38.344C146.242 38.4334 146.611 38.5544 146.966 38.7069C147.324 38.8593 147.644 39.0516 147.925 39.2836C148.21 39.5156 148.436 39.7957 148.602 40.1238C148.767 40.4519 148.85 40.8364 148.85 41.2772C148.85 41.8738 148.698 42.3991 148.393 42.8532C148.088 43.304 147.647 43.6569 147.07 43.9121C146.497 44.164 145.803 44.29 144.987 44.29C144.195 44.29 143.507 44.1674 142.924 43.9221C142.344 43.6768 141.89 43.3189 141.562 42.8482C141.237 42.3776 141.061 41.8042 141.035 41.1281H142.849C142.876 41.4827 142.985 41.7777 143.178 42.013C143.37 42.2483 143.62 42.424 143.928 42.54C144.24 42.656 144.588 42.714 144.972 42.714C145.373 42.714 145.725 42.6543 146.026 42.535C146.331 42.4124 146.57 42.2433 146.742 42.0279C146.915 41.8092 147.002 41.554 147.006 41.2623C147.002 40.9971 146.924 40.7784 146.772 40.606C146.62 40.4304 146.406 40.2845 146.131 40.1685C145.859 40.0492 145.541 39.9432 145.176 39.8504L144.018 39.5521C143.179 39.3366 142.516 39.0102 142.029 38.5727C141.545 38.1318 141.303 37.5468 141.303 36.8177C141.303 36.2178 141.466 35.6924 141.79 35.2417C142.119 34.7909 142.564 34.4413 143.128 34.1927C143.691 33.9408 144.329 33.8148 145.042 33.8148C145.764 33.8148 146.397 33.9408 146.941 34.1927C147.488 34.4413 147.917 34.7876 148.229 35.2317C148.54 35.6726 148.701 36.1797 148.711 36.7531H146.936ZM149.494 44.1359V33.954H156.117V35.5002H151.339V38.2644H155.774V39.8106H151.339V42.5897H156.156V44.1359H149.494Z" fill="#03265A"/>
</svg>
